<svg xmlns="http://www.w3.org/2000/svg" viewBox="0 0 1440 900" width="1440" height="900">
  <title>05 - Applications Configuration</title>
  <desc>Infrastructure Sizing Calculator - Applications Configuration (Step 4 Active)</desc>

  <defs>
    <style>
      .bg-primary { fill: #0d1117; }
      .bg-secondary { fill: #161b22; }
      .bg-tertiary { fill: #21262d; }
      .bg-header { fill: #010409; }
      .text-primary { fill: #e6edf3; font-family: -apple-system, sans-serif; }
      .text-secondary { fill: #8b949e; font-family: -apple-system, sans-serif; }
      .text-muted { fill: #6e7681; font-family: -apple-system, sans-serif; }
      .accent-blue { fill: #58a6ff; }
      .accent-green { fill: #3fb950; }
      .accent-purple { fill: #a371f7; }
      .font-xs { font-size: 12px; }
      .font-sm { font-size: 14px; }
      .font-lg { font-size: 18px; }
      .font-xl { font-size: 20px; }
      .font-2xl { font-size: 24px; }
    </style>
  </defs>

  <!-- Background -->
  <rect width="1440" height="900" class="bg-primary"/>

  <!-- Header -->
  <rect width="1440" height="64" class="bg-header"/>
  <line x1="0" y1="64" x2="1440" y2="64" stroke="#30363d"/>
  <rect x="24" y="16" width="32" height="32" rx="4" class="accent-blue"/>
  <text x="40" y="38" class="text-primary font-sm" text-anchor="middle">ISC</text>
  <text x="72" y="38" class="text-primary font-lg">Infrastructure Sizing Calculator</text>

  <!-- Sidebar -->
  <rect x="0" y="64" width="240" height="836" class="bg-secondary"/>
  <line x1="240" y1="64" x2="240" y2="900" stroke="#30363d"/>

  <!-- Progress Dots - Steps 1-3 completed, 4 active -->
  <circle cx="32" cy="96" r="4" class="accent-green"/>
  <circle cx="48" cy="96" r="4" class="accent-green"/>
  <circle cx="64" cy="96" r="4" class="accent-green"/>
  <circle cx="80" cy="96" r="4" class="accent-blue"/>
  <circle cx="96" cy="96" r="4" class="bg-tertiary"/>

  <text x="24" y="136" class="text-muted font-xs">WIZARD STEPS</text>

  <!-- Steps 1-3 Completed -->
  <circle cx="36" cy="172" r="12" class="accent-green"/>
  <text x="36" y="177" class="text-primary font-xs" text-anchor="middle">✓</text>
  <text x="60" y="177" class="text-secondary font-sm">Platform</text>

  <circle cx="36" cy="220" r="12" class="accent-green"/>
  <text x="36" y="225" class="text-primary font-xs" text-anchor="middle">✓</text>
  <text x="60" y="225" class="text-secondary font-sm">Technology</text>

  <circle cx="36" cy="268" r="12" class="accent-green"/>
  <text x="36" y="273" class="text-primary font-xs" text-anchor="middle">✓</text>
  <text x="60" y="273" class="text-secondary font-sm">Distribution</text>

  <!-- Step 4 Active -->
  <rect x="16" y="296" width="208" height="40" rx="8" class="bg-tertiary"/>
  <rect x="16" y="296" width="208" height="40" rx="8" stroke="#58a6ff" stroke-width="2" fill="none"/>
  <circle cx="36" cy="316" r="12" class="accent-blue"/>
  <text x="36" y="321" class="text-primary font-xs" text-anchor="middle">4</text>
  <text x="60" y="321" class="text-primary font-sm">Applications</text>

  <!-- Step 5 Pending -->
  <circle cx="36" cy="364" r="12" class="bg-tertiary" stroke="#30363d"/>
  <text x="36" y="369" class="text-muted font-xs" text-anchor="middle">5</text>
  <text x="60" y="369" class="text-muted font-sm">Pricing</text>

  <!-- Main Content -->
  <text x="280" y="112" class="text-primary font-2xl">Configure Applications</text>
  <text x="280" y="140" class="text-secondary font-sm">Set the number of applications per environment and size</text>

  <!-- Environment Toggles -->
  <rect x="280" y="168" width="24" height="24" rx="4" class="accent-blue"/>
  <text x="292" y="185" class="text-primary font-xs" text-anchor="middle">✓</text>
  <text x="316" y="185" class="text-primary font-sm">DEV</text>

  <rect x="380" y="168" width="24" height="24" rx="4" class="accent-blue"/>
  <text x="392" y="185" class="text-primary font-xs" text-anchor="middle">✓</text>
  <text x="416" y="185" class="text-primary font-sm">TEST</text>

  <rect x="480" y="168" width="24" height="24" rx="4" class="accent-blue"/>
  <text x="492" y="185" class="text-primary font-xs" text-anchor="middle">✓</text>
  <text x="516" y="185" class="text-primary font-sm">STAGING</text>

  <rect x="600" y="168" width="24" height="24" rx="4" class="accent-blue"/>
  <text x="612" y="185" class="text-primary font-xs" text-anchor="middle">✓</text>
  <text x="636" y="185" class="text-primary font-sm">PROD</text>

  <!-- Application Size Matrix -->
  <rect x="280" y="216" width="820" height="280" rx="8" class="bg-secondary"/>

  <!-- Table Header -->
  <text x="320" y="252" class="text-muted font-xs">SIZE</text>
  <text x="500" y="252" class="text-muted font-xs">DEV</text>
  <text x="620" y="252" class="text-muted font-xs">TEST</text>
  <text x="740" y="252" class="text-muted font-xs">STAGING</text>
  <text x="880" y="252" class="text-muted font-xs">PROD</text>
  <line x1="296" y1="268" x2="1084" y2="268" stroke="#30363d"/>

  <!-- Row 1: Small -->
  <text x="320" y="300" class="text-primary font-sm">Small (1 core)</text>
  <rect x="480" y="280" width="60" height="32" rx="4" class="bg-tertiary"/>
  <text x="510" y="302" class="text-primary font-sm" text-anchor="middle">5</text>
  <rect x="600" y="280" width="60" height="32" rx="4" class="bg-tertiary"/>
  <text x="630" y="302" class="text-primary font-sm" text-anchor="middle">5</text>
  <rect x="720" y="280" width="60" height="32" rx="4" class="bg-tertiary"/>
  <text x="750" y="302" class="text-primary font-sm" text-anchor="middle">3</text>
  <rect x="860" y="280" width="60" height="32" rx="4" class="bg-tertiary"/>
  <text x="890" y="302" class="text-primary font-sm" text-anchor="middle">3</text>

  <!-- Row 2: Medium -->
  <text x="320" y="348" class="text-primary font-sm">Medium (2 cores)</text>
  <rect x="480" y="328" width="60" height="32" rx="4" class="bg-tertiary"/>
  <text x="510" y="350" class="text-primary font-sm" text-anchor="middle">3</text>
  <rect x="600" y="328" width="60" height="32" rx="4" class="bg-tertiary"/>
  <text x="630" y="350" class="text-primary font-sm" text-anchor="middle">3</text>
  <rect x="720" y="328" width="60" height="32" rx="4" class="bg-tertiary"/>
  <text x="750" y="350" class="text-primary font-sm" text-anchor="middle">2</text>
  <rect x="860" y="328" width="60" height="32" rx="4" class="bg-tertiary"/>
  <text x="890" y="350" class="text-primary font-sm" text-anchor="middle">2</text>

  <!-- Row 3: Large -->
  <text x="320" y="396" class="text-primary font-sm">Large (4 cores)</text>
  <rect x="480" y="376" width="60" height="32" rx="4" class="bg-tertiary"/>
  <text x="510" y="398" class="text-primary font-sm" text-anchor="middle">1</text>
  <rect x="600" y="376" width="60" height="32" rx="4" class="bg-tertiary"/>
  <text x="630" y="398" class="text-primary font-sm" text-anchor="middle">1</text>
  <rect x="720" y="376" width="60" height="32" rx="4" class="bg-tertiary"/>
  <text x="750" y="398" class="text-primary font-sm" text-anchor="middle">1</text>
  <rect x="860" y="376" width="60" height="32" rx="4" class="bg-tertiary"/>
  <text x="890" y="398" class="text-primary font-sm" text-anchor="middle">1</text>

  <!-- Totals Row -->
  <line x1="296" y1="424" x2="1084" y2="424" stroke="#30363d" stroke-width="2"/>
  <text x="320" y="460" class="text-primary font-sm" font-weight="600">TOTAL</text>
  <text x="510" y="460" class="text-primary font-sm" text-anchor="middle">9</text>
  <text x="630" y="460" class="text-primary font-sm" text-anchor="middle">9</text>
  <text x="750" y="460" class="text-primary font-sm" text-anchor="middle">6</text>
  <text x="890" y="460" class="text-primary font-sm" text-anchor="middle">6</text>

  <!-- Grand Total -->
  <text x="1000" y="460" class="text-secondary font-sm">= </text>
  <text x="1020" y="460" class="accent-blue font-sm" font-weight="600">30 applications</text>

  <!-- Presets -->
  <text x="280" y="540" class="text-muted font-xs">QUICK PRESETS</text>
  <rect x="280" y="556" width="140" height="32" rx="4" class="bg-tertiary"/>
  <text x="350" y="578" class="text-secondary font-sm" text-anchor="middle">Startup (10 apps)</text>
  <rect x="436" y="556" width="120" height="32" rx="4" class="bg-tertiary"/>
  <text x="496" y="578" class="text-secondary font-sm" text-anchor="middle">Medium (50)</text>
  <rect x="572" y="556" width="140" height="32" rx="4" class="bg-tertiary"/>
  <text x="642" y="578" class="text-secondary font-sm" text-anchor="middle">Enterprise (100+)</text>

  <!-- Navigation -->
  <line x1="280" y1="820" x2="1120" y2="820" stroke="#30363d"/>
  <rect x="280" y="840" width="80" height="36" rx="8" class="bg-tertiary"/>
  <text x="320" y="864" class="text-primary font-sm" text-anchor="middle">Back</text>

  <circle cx="660" cy="858" r="4" class="accent-green"/>
  <circle cx="680" cy="858" r="4" class="accent-green"/>
  <circle cx="700" cy="858" r="4" class="accent-green"/>
  <circle cx="720" cy="858" r="4" class="accent-blue"/>
  <circle cx="740" cy="858" r="4" class="bg-tertiary"/>

  <rect x="1020" y="840" width="100" height="36" rx="8" class="accent-blue"/>
  <text x="1070" y="864" class="bg-primary font-sm" text-anchor="middle">Next Step</text>

  <!-- Context Panel -->
  <rect x="1160" y="64" width="280" height="836" class="bg-secondary"/>
  <line x1="1160" y1="64" x2="1160" y2="900" stroke="#30363d"/>

  <text x="1184" y="104" class="text-primary font-lg">Quick Summary</text>

  <rect x="1176" y="128" width="248" height="64" rx="8" class="bg-tertiary"/>
  <text x="1192" y="152" class="text-muted font-xs">PLATFORM</text>
  <text x="1192" y="176" class="text-primary font-xl">Kubernetes</text>

  <rect x="1176" y="208" width="248" height="64" rx="8" class="bg-tertiary"/>
  <text x="1192" y="232" class="text-muted font-xs">TOTAL NODES</text>
  <text x="1192" y="256" class="text-primary font-xl">12</text>
  <text x="1230" y="256" class="text-secondary font-xs">+2 HA</text>

  <rect x="1176" y="288" width="248" height="64" rx="8" class="bg-tertiary"/>
  <text x="1192" y="312" class="text-muted font-xs">TOTAL vCPUs</text>
  <text x="1192" y="336" class="text-primary font-xl">96</text>

  <rect x="1176" y="368" width="248" height="64" rx="8" class="bg-tertiary"/>
  <text x="1192" y="392" class="text-muted font-xs">TOTAL RAM</text>
  <text x="1192" y="416" class="text-primary font-xl">384 GB</text>

  <rect x="1176" y="448" width="248" height="64" rx="8" class="bg-tertiary"/>
  <text x="1192" y="472" class="text-muted font-xs">MONTHLY COST</text>
  <text x="1192" y="496" class="text-primary font-xl">$4,200</text>
  <text x="1270" y="496" class="text-secondary font-xs">/month</text>

  <text x="1184" y="760" class="text-muted font-xs">QUICK ACTIONS</text>
  <rect x="1176" y="776" width="248" height="36" rx="8" class="accent-blue"/>
  <text x="1300" y="800" class="bg-primary font-sm" text-anchor="middle">Save Scenario</text>
</svg>
