<svg xmlns="http://www.w3.org/2000/svg" viewBox="0 0 1440 900" width="1440" height="900">
  <title>06 - Sizing Results</title>
  <desc>Infrastructure Sizing Calculator - Sizing Results (All Steps Completed)</desc>

  <defs>
    <style>
      .bg-primary { fill: #0d1117; }
      .bg-secondary { fill: #161b22; }
      .bg-tertiary { fill: #21262d; }
      .bg-header { fill: #010409; }
      .text-primary { fill: #e6edf3; font-family: -apple-system, sans-serif; }
      .text-secondary { fill: #8b949e; font-family: -apple-system, sans-serif; }
      .text-muted { fill: #6e7681; font-family: -apple-system, sans-serif; }
      .accent-blue { fill: #58a6ff; }
      .accent-green { fill: #3fb950; }
      .accent-purple { fill: #a371f7; }
      .font-xs { font-size: 12px; }
      .font-sm { font-size: 14px; }
      .font-lg { font-size: 18px; }
      .font-xl { font-size: 20px; }
      .font-2xl { font-size: 24px; }
      .font-3xl { font-size: 30px; }
    </style>
  </defs>

  <!-- Background -->
  <rect width="1440" height="900" class="bg-primary"/>

  <!-- Header -->
  <rect width="1440" height="64" class="bg-header"/>
  <line x1="0" y1="64" x2="1440" y2="64" stroke="#30363d"/>
  <rect x="24" y="16" width="32" height="32" rx="4" class="accent-blue"/>
  <text x="40" y="38" class="text-primary font-sm" text-anchor="middle">ISC</text>
  <text x="72" y="38" class="text-primary font-lg">Infrastructure Sizing Calculator</text>

  <!-- Sidebar -->
  <rect x="0" y="64" width="240" height="836" class="bg-secondary"/>
  <line x1="240" y1="64" x2="240" y2="900" stroke="#30363d"/>

  <!-- All Steps Completed -->
  <circle cx="32" cy="96" r="4" class="accent-green"/>
  <circle cx="48" cy="96" r="4" class="accent-green"/>
  <circle cx="64" cy="96" r="4" class="accent-green"/>
  <circle cx="80" cy="96" r="4" class="accent-green"/>
  <circle cx="96" cy="96" r="4" class="accent-green"/>

  <text x="24" y="136" class="text-muted font-xs">WIZARD STEPS</text>

  <circle cx="36" cy="172" r="12" class="accent-green"/>
  <text x="36" y="177" class="text-primary font-xs" text-anchor="middle">✓</text>
  <text x="60" y="177" class="text-secondary font-sm">Platform</text>

  <circle cx="36" cy="220" r="12" class="accent-green"/>
  <text x="36" y="225" class="text-primary font-xs" text-anchor="middle">✓</text>
  <text x="60" y="225" class="text-secondary font-sm">Technology</text>

  <circle cx="36" cy="268" r="12" class="accent-green"/>
  <text x="36" y="273" class="text-primary font-xs" text-anchor="middle">✓</text>
  <text x="60" y="273" class="text-secondary font-sm">Distribution</text>

  <circle cx="36" cy="316" r="12" class="accent-green"/>
  <text x="36" y="321" class="text-primary font-xs" text-anchor="middle">✓</text>
  <text x="60" y="321" class="text-secondary font-sm">Applications</text>

  <circle cx="36" cy="364" r="12" class="accent-green"/>
  <text x="36" y="369" class="text-primary font-xs" text-anchor="middle">✓</text>
  <text x="60" y="369" class="text-secondary font-sm">Pricing</text>

  <!-- Results Section - Sizing Active -->
  <text x="24" y="760" class="text-muted font-xs">RESULTS</text>
  <rect x="16" y="772" width="208" height="28" rx="4" class="bg-tertiary"/>
  <text x="24" y="792" class="text-primary font-sm">Sizing</text>
  <text x="24" y="824" class="text-secondary font-sm">Costs</text>
  <text x="24" y="856" class="text-secondary font-sm">Growth</text>

  <!-- Main Content -->
  <text x="280" y="112" class="text-primary font-2xl">Sizing Results</text>

  <!-- Tabs -->
  <rect x="280" y="128" width="80" height="32" rx="0" fill="transparent"/>
  <text x="320" y="150" class="text-primary font-sm" text-anchor="middle">Overview</text>
  <line x1="280" y1="160" x2="360" y2="160" stroke="#58a6ff" stroke-width="2"/>

  <text x="400" y="150" class="text-secondary font-sm" text-anchor="middle">Nodes</text>
  <text x="500" y="150" class="text-secondary font-sm" text-anchor="middle">Resources</text>
  <text x="620" y="150" class="text-secondary font-sm" text-anchor="middle">By Environment</text>
  <line x1="280" y1="161" x2="1120" y2="161" stroke="#30363d"/>

  <!-- Summary Cards -->
  <rect x="280" y="188" width="200" height="100" rx="8" class="bg-secondary"/>
  <text x="380" y="232" class="accent-blue font-3xl" text-anchor="middle">12</text>
  <text x="380" y="264" class="text-muted font-xs" text-anchor="middle">NODES (+2 HA)</text>

  <rect x="500" y="188" width="200" height="100" rx="8" class="bg-secondary"/>
  <text x="600" y="232" class="accent-blue font-3xl" text-anchor="middle">96</text>
  <text x="600" y="264" class="text-muted font-xs" text-anchor="middle">vCPUs</text>

  <rect x="720" y="188" width="200" height="100" rx="8" class="bg-secondary"/>
  <text x="820" y="232" class="accent-blue font-3xl" text-anchor="middle">384</text>
  <text x="820" y="264" class="text-muted font-xs" text-anchor="middle">GB RAM</text>

  <rect x="940" y="188" width="180" height="100" rx="8" class="bg-secondary"/>
  <text x="1030" y="232" class="accent-blue font-3xl" text-anchor="middle">$4,200</text>
  <text x="1030" y="264" class="text-muted font-xs" text-anchor="middle">/MONTH</text>

  <!-- Architecture Diagram -->
  <rect x="280" y="312" width="840" height="320" rx="8" class="bg-secondary"/>

  <text x="700" y="352" class="text-muted font-sm" text-anchor="middle">CONTROL PLANE (3 nodes)</text>

  <!-- Master Nodes -->
  <rect x="560" y="372" width="60" height="60" rx="8" class="bg-tertiary" stroke="#a371f7"/>
  <text x="590" y="408" class="text-primary font-sm" text-anchor="middle">M1</text>

  <rect x="640" y="372" width="60" height="60" rx="8" class="bg-tertiary" stroke="#a371f7"/>
  <text x="670" y="408" class="text-primary font-sm" text-anchor="middle">M2</text>

  <rect x="720" y="372" width="60" height="60" rx="8" class="bg-tertiary" stroke="#a371f7"/>
  <text x="750" y="408" class="text-primary font-sm" text-anchor="middle">M3</text>

  <text x="700" y="460" class="text-secondary font-xs" text-anchor="middle">4 vCPU / 16GB each</text>

  <!-- Connector -->
  <line x1="700" y1="472" x2="700" y2="492" stroke="#30363d" stroke-width="2"/>

  <text x="700" y="520" class="text-muted font-sm" text-anchor="middle">WORKER NODES (9 nodes)</text>

  <!-- Worker Nodes -->
  <rect x="340" y="540" width="60" height="60" rx="8" class="bg-tertiary" stroke="#58a6ff"/>
  <text x="370" y="576" class="text-primary font-sm" text-anchor="middle">W1</text>

  <rect x="420" y="540" width="60" height="60" rx="8" class="bg-tertiary" stroke="#58a6ff"/>
  <text x="450" y="576" class="text-primary font-sm" text-anchor="middle">W2</text>

  <rect x="500" y="540" width="60" height="60" rx="8" class="bg-tertiary" stroke="#58a6ff"/>
  <text x="530" y="576" class="text-primary font-sm" text-anchor="middle">W3</text>

  <rect x="580" y="540" width="60" height="60" rx="8" class="bg-tertiary" stroke="#58a6ff"/>
  <text x="610" y="576" class="text-primary font-sm" text-anchor="middle">W4</text>

  <rect x="660" y="540" width="60" height="60" rx="8" class="bg-tertiary" stroke="#58a6ff"/>
  <text x="690" y="576" class="text-primary font-sm" text-anchor="middle">W5</text>

  <rect x="740" y="540" width="60" height="60" rx="8" class="bg-tertiary" stroke="#58a6ff"/>
  <text x="770" y="576" class="text-primary font-sm" text-anchor="middle">W6</text>

  <rect x="820" y="540" width="60" height="60" rx="8" class="bg-tertiary" stroke="#58a6ff"/>
  <text x="850" y="576" class="text-primary font-sm" text-anchor="middle">W7</text>

  <rect x="900" y="540" width="60" height="60" rx="8" class="bg-tertiary" stroke="#58a6ff"/>
  <text x="930" y="576" class="text-primary font-sm" text-anchor="middle">W8</text>

  <rect x="980" y="540" width="60" height="60" rx="8" class="bg-tertiary" stroke="#58a6ff"/>
  <text x="1010" y="576" class="text-primary font-sm" text-anchor="middle">W9</text>

  <text x="700" y="620" class="text-secondary font-xs" text-anchor="middle">8 vCPU / 32GB each</text>

  <!-- Recommendations -->
  <rect x="280" y="656" width="840" height="80" rx="8" class="bg-secondary" stroke="#d29922"/>
  <text x="304" y="692" class="text-secondary font-sm">• Consider adding 1 more worker node for 20% headroom</text>
  <text x="304" y="716" class="text-secondary font-sm">• Enable pod disruption budgets for high availability</text>

  <!-- Navigation -->
  <line x1="280" y1="820" x2="1120" y2="820" stroke="#30363d"/>
  <rect x="280" y="840" width="80" height="36" rx="8" class="bg-tertiary"/>
  <text x="320" y="864" class="text-primary font-sm" text-anchor="middle">Back</text>

  <rect x="1000" y="840" width="120" height="36" rx="8" class="accent-blue"/>
  <text x="1060" y="864" class="bg-primary font-sm" text-anchor="middle">View Costs</text>

  <!-- Context Panel -->
  <rect x="1160" y="64" width="280" height="836" class="bg-secondary"/>
  <line x1="1160" y1="64" x2="1160" y2="900" stroke="#30363d"/>

  <text x="1184" y="104" class="text-primary font-lg">Quick Summary</text>

  <rect x="1176" y="128" width="248" height="64" rx="8" class="bg-tertiary"/>
  <text x="1192" y="152" class="text-muted font-xs">PLATFORM</text>
  <text x="1192" y="176" class="text-primary font-xl">Kubernetes</text>

  <rect x="1176" y="208" width="248" height="64" rx="8" class="bg-tertiary"/>
  <text x="1192" y="232" class="text-muted font-xs">TOTAL NODES</text>
  <text x="1192" y="256" class="text-primary font-xl">12</text>
  <text x="1230" y="256" class="text-secondary font-xs">+2 HA</text>

  <rect x="1176" y="288" width="248" height="64" rx="8" class="bg-tertiary"/>
  <text x="1192" y="312" class="text-muted font-xs">TOTAL vCPUs</text>
  <text x="1192" y="336" class="text-primary font-xl">96</text>

  <rect x="1176" y="368" width="248" height="64" rx="8" class="bg-tertiary"/>
  <text x="1192" y="392" class="text-muted font-xs">TOTAL RAM</text>
  <text x="1192" y="416" class="text-primary font-xl">384 GB</text>

  <rect x="1176" y="448" width="248" height="64" rx="8" class="bg-tertiary"/>
  <text x="1192" y="472" class="text-muted font-xs">MONTHLY COST</text>
  <text x="1192" y="496" class="text-primary font-xl">$4,200</text>
  <text x="1270" y="496" class="text-secondary font-xs">/month</text>

  <text x="1184" y="760" class="text-muted font-xs">QUICK ACTIONS</text>
  <rect x="1176" y="776" width="248" height="36" rx="8" class="accent-blue"/>
  <text x="1300" y="800" class="bg-primary font-sm" text-anchor="middle">Save Scenario</text>
</svg>
