<svg xmlns="http://www.w3.org/2000/svg" viewBox="0 0 1440 900" width="1440" height="900">
  <title>07 - Cost Analysis</title>
  <desc>Infrastructure Sizing Calculator - Cost Analysis</desc>

  <defs>
    <style>
      .bg-primary { fill: #0d1117; }
      .bg-secondary { fill: #161b22; }
      .bg-tertiary { fill: #21262d; }
      .bg-header { fill: #010409; }
      .text-primary { fill: #e6edf3; font-family: -apple-system, sans-serif; }
      .text-secondary { fill: #8b949e; font-family: -apple-system, sans-serif; }
      .text-muted { fill: #6e7681; font-family: -apple-system, sans-serif; }
      .accent-blue { fill: #58a6ff; }
      .accent-green { fill: #3fb950; }
      .accent-purple { fill: #a371f7; }
      .accent-red { fill: #f85149; }
      .font-xs { font-size: 12px; }
      .font-sm { font-size: 14px; }
      .font-lg { font-size: 18px; }
      .font-xl { font-size: 20px; }
      .font-2xl { font-size: 24px; }
    </style>
  </defs>

  <!-- Background -->
  <rect width="1440" height="900" class="bg-primary"/>

  <!-- Header -->
  <rect width="1440" height="64" class="bg-header"/>
  <line x1="0" y1="64" x2="1440" y2="64" stroke="#30363d"/>
  <rect x="24" y="16" width="32" height="32" rx="4" class="accent-blue"/>
  <text x="40" y="38" class="text-primary font-sm" text-anchor="middle">ISC</text>
  <text x="72" y="38" class="text-primary font-lg">Infrastructure Sizing Calculator</text>

  <!-- Sidebar -->
  <rect x="0" y="64" width="240" height="836" class="bg-secondary"/>
  <line x1="240" y1="64" x2="240" y2="900" stroke="#30363d"/>

  <!-- All Steps Completed -->
  <circle cx="32" cy="96" r="4" class="accent-green"/>
  <circle cx="48" cy="96" r="4" class="accent-green"/>
  <circle cx="64" cy="96" r="4" class="accent-green"/>
  <circle cx="80" cy="96" r="4" class="accent-green"/>
  <circle cx="96" cy="96" r="4" class="accent-green"/>

  <text x="24" y="136" class="text-muted font-xs">WIZARD STEPS</text>

  <!-- All steps completed -->
  <circle cx="36" cy="172" r="12" class="accent-green"/>
  <text x="36" y="177" class="text-primary font-xs" text-anchor="middle">✓</text>
  <text x="60" y="177" class="text-secondary font-sm">Platform</text>

  <circle cx="36" cy="220" r="12" class="accent-green"/>
  <text x="36" y="225" class="text-primary font-xs" text-anchor="middle">✓</text>
  <text x="60" y="225" class="text-secondary font-sm">Technology</text>

  <circle cx="36" cy="268" r="12" class="accent-green"/>
  <text x="36" y="273" class="text-primary font-xs" text-anchor="middle">✓</text>
  <text x="60" y="273" class="text-secondary font-sm">Distribution</text>

  <circle cx="36" cy="316" r="12" class="accent-green"/>
  <text x="36" y="321" class="text-primary font-xs" text-anchor="middle">✓</text>
  <text x="60" y="321" class="text-secondary font-sm">Applications</text>

  <circle cx="36" cy="364" r="12" class="accent-green"/>
  <text x="36" y="369" class="text-primary font-xs" text-anchor="middle">✓</text>
  <text x="60" y="369" class="text-secondary font-sm">Pricing</text>

  <!-- Results - Costs Active -->
  <text x="24" y="760" class="text-muted font-xs">RESULTS</text>
  <text x="24" y="788" class="text-secondary font-sm">Sizing</text>
  <rect x="16" y="800" width="208" height="28" rx="4" class="bg-tertiary"/>
  <text x="24" y="820" class="text-primary font-sm">Costs</text>
  <text x="24" y="856" class="text-secondary font-sm">Growth</text>

  <!-- Main Content -->
  <text x="280" y="112" class="text-primary font-2xl">Cost Analysis</text>

  <!-- Tabs -->
  <text x="320" y="150" class="text-primary font-sm" text-anchor="middle">On-Prem</text>
  <line x1="280" y1="160" x2="360" y2="160" stroke="#58a6ff" stroke-width="2"/>
  <text x="400" y="150" class="text-secondary font-sm" text-anchor="middle">AWS</text>
  <text x="480" y="150" class="text-secondary font-sm" text-anchor="middle">Azure</text>
  <text x="560" y="150" class="text-secondary font-sm" text-anchor="middle">GCP</text>
  <line x1="600" y1="136" x2="600" y2="156" stroke="#30363d"/>
  <text x="680" y="150" class="text-secondary font-sm" text-anchor="middle">Compare All</text>
  <line x1="280" y1="161" x2="1120" y2="161" stroke="#30363d"/>

  <!-- Monthly Cost Breakdown -->
  <rect x="280" y="188" width="840" height="220" rx="8" class="bg-secondary"/>
  <text x="304" y="220" class="text-muted font-xs">MONTHLY COST BREAKDOWN</text>

  <!-- Compute Bar -->
  <text x="304" y="264" class="text-secondary font-sm">Compute</text>
  <rect x="400" y="248" width="500" height="24" rx="4" class="bg-tertiary"/>
  <rect x="400" y="248" width="380" height="24" rx="4" class="accent-blue"/>
  <text x="940" y="266" class="text-primary font-sm">$3,200 (76%)</text>

  <!-- Storage Bar -->
  <text x="304" y="308" class="text-secondary font-sm">Storage</text>
  <rect x="400" y="292" width="500" height="24" rx="4" class="bg-tertiary"/>
  <rect x="400" y="292" width="95" height="24" rx="4" class="accent-green"/>
  <text x="940" y="310" class="text-primary font-sm">$800 (19%)</text>

  <!-- Licensing Bar -->
  <text x="304" y="352" class="text-secondary font-sm">Licensing</text>
  <rect x="400" y="336" width="500" height="24" rx="4" class="bg-tertiary"/>
  <rect x="400" y="336" width="25" height="24" rx="4" class="accent-purple"/>
  <text x="940" y="354" class="text-primary font-sm">$200 (5%)</text>

  <!-- Total -->
  <line x1="304" y1="376" x2="1096" y2="376" stroke="#30363d"/>
  <text x="920" y="400" class="text-muted font-sm">TOTAL:</text>
  <text x="980" y="400" class="accent-blue font-2xl">$4,200/month</text>

  <!-- Cloud Comparison Table -->
  <rect x="280" y="432" width="840" height="280" rx="8" class="bg-secondary"/>

  <!-- Table Header -->
  <text x="320" y="468" class="text-muted font-xs">PROVIDER</text>
  <text x="520" y="468" class="text-muted font-xs">MONTHLY</text>
  <text x="680" y="468" class="text-muted font-xs">VS ON-PREM</text>
  <text x="880" y="468" class="text-muted font-xs">3-YEAR TCO</text>
  <line x1="296" y1="484" x2="1104" y2="484" stroke="#30363d"/>

  <!-- On-Premises Row -->
  <text x="320" y="520" class="text-primary font-sm" font-weight="600">On-Premises</text>
  <text x="520" y="520" class="text-primary font-sm">$4,200</text>
  <text x="680" y="520" class="text-muted font-sm">--</text>
  <text x="880" y="520" class="text-primary font-sm">$151,200</text>

  <!-- AWS Row -->
  <text x="320" y="560" class="text-primary font-sm">AWS EKS</text>
  <text x="520" y="560" class="text-primary font-sm">$5,100</text>
  <text x="680" y="560" class="accent-red font-sm">+21%</text>
  <text x="880" y="560" class="text-primary font-sm">$183,600</text>

  <!-- Azure Row -->
  <text x="320" y="600" class="text-primary font-sm">Azure AKS</text>
  <text x="520" y="600" class="text-primary font-sm">$4,800</text>
  <text x="680" y="600" class="accent-red font-sm">+14%</text>
  <text x="880" y="600" class="text-primary font-sm">$172,800</text>

  <!-- GCP Row (highlighted) -->
  <rect x="296" y="616" width="792" height="40" rx="4" fill="rgba(63,185,80,0.1)"/>
  <text x="320" y="644" class="text-primary font-sm">Google GKE</text>
  <text x="520" y="644" class="text-primary font-sm">$4,600</text>
  <text x="680" y="644" class="accent-red font-sm">+10%</text>
  <text x="880" y="644" class="accent-green font-sm">$165,600</text>
  <text x="980" y="644" class="accent-green font-xs">Lowest</text>

  <!-- Navigation -->
  <line x1="280" y1="820" x2="1120" y2="820" stroke="#30363d"/>
  <rect x="280" y="840" width="120" height="36" rx="8" class="bg-tertiary"/>
  <text x="340" y="864" class="text-primary font-sm" text-anchor="middle">Back to Sizing</text>

  <rect x="1000" y="840" width="120" height="36" rx="8" class="accent-blue"/>
  <text x="1060" y="864" class="bg-primary font-sm" text-anchor="middle">View Growth</text>

  <!-- Context Panel -->
  <rect x="1160" y="64" width="280" height="836" class="bg-secondary"/>
  <line x1="1160" y1="64" x2="1160" y2="900" stroke="#30363d"/>

  <text x="1184" y="104" class="text-primary font-lg">Quick Summary</text>

  <rect x="1176" y="128" width="248" height="64" rx="8" class="bg-tertiary"/>
  <text x="1192" y="152" class="text-muted font-xs">PLATFORM</text>
  <text x="1192" y="176" class="text-primary font-xl">Kubernetes</text>

  <rect x="1176" y="208" width="248" height="64" rx="8" class="bg-tertiary"/>
  <text x="1192" y="232" class="text-muted font-xs">TOTAL NODES</text>
  <text x="1192" y="256" class="text-primary font-xl">12</text>
  <text x="1230" y="256" class="text-secondary font-xs">+2 HA</text>

  <rect x="1176" y="288" width="248" height="64" rx="8" class="bg-tertiary"/>
  <text x="1192" y="312" class="text-muted font-xs">TOTAL vCPUs</text>
  <text x="1192" y="336" class="text-primary font-xl">96</text>

  <rect x="1176" y="368" width="248" height="64" rx="8" class="bg-tertiary"/>
  <text x="1192" y="392" class="text-muted font-xs">TOTAL RAM</text>
  <text x="1192" y="416" class="text-primary font-xl">384 GB</text>

  <rect x="1176" y="448" width="248" height="64" rx="8" class="bg-tertiary"/>
  <text x="1192" y="472" class="text-muted font-xs">MONTHLY COST</text>
  <text x="1192" y="496" class="text-primary font-xl">$4,200</text>
  <text x="1270" y="496" class="text-secondary font-xs">/month</text>

  <text x="1184" y="760" class="text-muted font-xs">QUICK ACTIONS</text>
  <rect x="1176" y="776" width="248" height="36" rx="8" class="accent-blue"/>
  <text x="1300" y="800" class="bg-primary font-sm" text-anchor="middle">Save Scenario</text>
</svg>
