<svg xmlns="http://www.w3.org/2000/svg" viewBox="0 0 1440 900" width="1440" height="900">
  <title>08 - Growth Planning</title>
  <desc>Infrastructure Sizing Calculator - Growth Planning</desc>

  <defs>
    <style>
      .bg-primary { fill: #0d1117; }
      .bg-secondary { fill: #161b22; }
      .bg-tertiary { fill: #21262d; }
      .bg-header { fill: #010409; }
      .text-primary { fill: #e6edf3; font-family: -apple-system, sans-serif; }
      .text-secondary { fill: #8b949e; font-family: -apple-system, sans-serif; }
      .text-muted { fill: #6e7681; font-family: -apple-system, sans-serif; }
      .accent-blue { fill: #58a6ff; }
      .accent-green { fill: #3fb950; }
      .font-xs { font-size: 12px; }
      .font-sm { font-size: 14px; }
      .font-lg { font-size: 18px; }
      .font-xl { font-size: 20px; }
      .font-2xl { font-size: 24px; }
    </style>
  </defs>

  <!-- Background -->
  <rect width="1440" height="900" class="bg-primary"/>

  <!-- Header -->
  <rect width="1440" height="64" class="bg-header"/>
  <line x1="0" y1="64" x2="1440" y2="64" stroke="#30363d"/>
  <rect x="24" y="16" width="32" height="32" rx="4" class="accent-blue"/>
  <text x="40" y="38" class="text-primary font-sm" text-anchor="middle">ISC</text>
  <text x="72" y="38" class="text-primary font-lg">Infrastructure Sizing Calculator</text>

  <!-- Sidebar -->
  <rect x="0" y="64" width="240" height="836" class="bg-secondary"/>
  <line x1="240" y1="64" x2="240" y2="900" stroke="#30363d"/>

  <!-- All Steps Completed -->
  <circle cx="32" cy="96" r="4" class="accent-green"/>
  <circle cx="48" cy="96" r="4" class="accent-green"/>
  <circle cx="64" cy="96" r="4" class="accent-green"/>
  <circle cx="80" cy="96" r="4" class="accent-green"/>
  <circle cx="96" cy="96" r="4" class="accent-green"/>

  <!-- Results - Growth Active -->
  <text x="24" y="760" class="text-muted font-xs">RESULTS</text>
  <text x="24" y="788" class="text-secondary font-sm">Sizing</text>
  <text x="24" y="816" class="text-secondary font-sm">Costs</text>
  <rect x="16" y="832" width="208" height="28" rx="4" class="bg-tertiary"/>
  <text x="24" y="852" class="text-primary font-sm">Growth</text>

  <!-- Main Content -->
  <text x="280" y="112" class="text-primary font-2xl">Growth Planning</text>
  <text x="280" y="140" class="text-secondary font-sm">Plan your infrastructure scaling over time</text>

  <!-- Growth Configuration -->
  <text x="280" y="188" class="text-secondary font-sm">Annual Growth Rate</text>
  <rect x="280" y="200" width="400" height="8" rx="4" class="bg-tertiary"/>
  <rect x="280" y="200" width="200" height="8" rx="4" class="accent-blue"/>
  <text x="700" y="212" class="accent-blue font-lg">25%</text>

  <text x="760" y="188" class="text-secondary font-sm">Planning Horizon</text>
  <rect x="760" y="200" width="60" height="32" rx="4" class="bg-tertiary"/>
  <text x="790" y="222" class="text-secondary font-sm" text-anchor="middle">1yr</text>
  <rect x="828" y="200" width="60" height="32" rx="4" class="bg-tertiary"/>
  <text x="858" y="222" class="text-secondary font-sm" text-anchor="middle">2yr</text>
  <rect x="896" y="200" width="60" height="32" rx="4" class="accent-blue"/>
  <text x="926" y="222" class="bg-primary font-sm" text-anchor="middle">3yr</text>
  <rect x="964" y="200" width="60" height="32" rx="4" class="bg-tertiary"/>
  <text x="994" y="222" class="text-secondary font-sm" text-anchor="middle">5yr</text>

  <!-- Projection Chart -->
  <rect x="280" y="260" width="840" height="200" rx="8" class="bg-secondary"/>

  <!-- Y-axis labels -->
  <text x="296" y="290" class="text-muted font-xs">30</text>
  <text x="296" y="350" class="text-muted font-xs">20</text>
  <text x="296" y="410" class="text-muted font-xs">12</text>

  <!-- Chart bars -->
  <rect x="360" y="380" width="40" height="60" rx="4" class="accent-blue"/>
  <text x="380" y="455" class="text-muted font-xs" text-anchor="middle">Now</text>

  <rect x="440" y="360" width="40" height="80" rx="4" class="accent-blue"/>
  <text x="460" y="455" class="text-muted font-xs" text-anchor="middle">Q1</text>

  <rect x="520" y="340" width="40" height="100" rx="4" class="accent-blue"/>
  <text x="540" y="455" class="text-muted font-xs" text-anchor="middle">Q2</text>

  <rect x="600" y="320" width="40" height="120" rx="4" class="accent-blue"/>
  <text x="620" y="455" class="text-muted font-xs" text-anchor="middle">Q3</text>

  <rect x="680" y="300" width="40" height="140" rx="4" class="accent-blue"/>
  <text x="700" y="455" class="text-muted font-xs" text-anchor="middle">Q4</text>

  <rect x="800" y="260" width="40" height="180" rx="4" class="accent-blue"/>
  <text x="820" y="455" class="text-muted font-xs" text-anchor="middle">Y2</text>

  <rect x="920" y="210" width="40" height="230" rx="4" class="accent-blue"/>
  <text x="940" y="455" class="text-muted font-xs" text-anchor="middle">Y3</text>

  <!-- Milestone Cards -->
  <rect x="280" y="488" width="260" height="160" rx="8" class="bg-secondary" stroke="#58a6ff"/>
  <text x="410" y="520" class="text-muted font-sm" text-anchor="middle">TODAY</text>
  <text x="410" y="560" class="text-primary font-2xl" text-anchor="middle">12</text>
  <text x="410" y="580" class="text-secondary font-xs" text-anchor="middle">nodes</text>
  <text x="360" y="616" class="text-primary font-lg">30</text>
  <text x="360" y="632" class="text-secondary font-xs">apps</text>
  <text x="460" y="616" class="accent-blue font-lg">$4,200</text>
  <text x="460" y="632" class="text-secondary font-xs">/mo</text>

  <rect x="560" y="488" width="260" height="160" rx="8" class="bg-secondary"/>
  <text x="690" y="520" class="text-muted font-sm" text-anchor="middle">YEAR 1</text>
  <text x="690" y="560" class="text-primary font-2xl" text-anchor="middle">15</text>
  <text x="690" y="580" class="text-secondary font-xs" text-anchor="middle">nodes</text>
  <text x="640" y="616" class="text-primary font-lg">38</text>
  <text x="640" y="632" class="text-secondary font-xs">apps</text>
  <text x="740" y="616" class="accent-blue font-lg">$5,300</text>
  <text x="740" y="632" class="text-secondary font-xs">/mo</text>

  <rect x="840" y="488" width="260" height="160" rx="8" class="bg-secondary"/>
  <text x="970" y="520" class="text-muted font-sm" text-anchor="middle">YEAR 3</text>
  <text x="970" y="560" class="text-primary font-2xl" text-anchor="middle">24</text>
  <text x="970" y="580" class="text-secondary font-xs" text-anchor="middle">nodes</text>
  <text x="920" y="616" class="text-primary font-lg">59</text>
  <text x="920" y="632" class="text-secondary font-xs">apps</text>
  <text x="1020" y="616" class="accent-blue font-lg">$8,400</text>
  <text x="1020" y="632" class="text-secondary font-xs">/mo</text>

  <!-- Insight Box -->
  <rect x="280" y="672" width="840" height="60" rx="8" class="bg-secondary" stroke="#58a6ff"/>
  <text x="304" y="708" class="text-secondary font-sm">Plan to add 4 worker nodes by end of Year 1 to maintain 20% headroom with projected growth.</text>

  <!-- Navigation -->
  <line x1="280" y1="820" x2="1120" y2="820" stroke="#30363d"/>
  <rect x="280" y="840" width="120" height="36" rx="8" class="bg-tertiary"/>
  <text x="340" y="864" class="text-primary font-sm" text-anchor="middle">Back to Costs</text>

  <rect x="1000" y="840" width="120" height="36" rx="8" class="accent-blue"/>
  <text x="1060" y="864" class="bg-primary font-sm" text-anchor="middle">Save Scenario</text>

  <!-- Context Panel -->
  <rect x="1160" y="64" width="280" height="836" class="bg-secondary"/>
  <line x1="1160" y1="64" x2="1160" y2="900" stroke="#30363d"/>

  <text x="1184" y="104" class="text-primary font-lg">Quick Summary</text>

  <rect x="1176" y="128" width="248" height="64" rx="8" class="bg-tertiary"/>
  <text x="1192" y="152" class="text-muted font-xs">PLATFORM</text>
  <text x="1192" y="176" class="text-primary font-xl">Kubernetes</text>

  <rect x="1176" y="208" width="248" height="64" rx="8" class="bg-tertiary"/>
  <text x="1192" y="232" class="text-muted font-xs">TOTAL NODES</text>
  <text x="1192" y="256" class="text-primary font-xl">12</text>
  <text x="1230" y="256" class="text-secondary font-xs">+2 HA</text>

  <rect x="1176" y="288" width="248" height="64" rx="8" class="bg-tertiary"/>
  <text x="1192" y="312" class="text-muted font-xs">TOTAL vCPUs</text>
  <text x="1192" y="336" class="text-primary font-xl">96</text>

  <rect x="1176" y="368" width="248" height="64" rx="8" class="bg-tertiary"/>
  <text x="1192" y="392" class="text-muted font-xs">TOTAL RAM</text>
  <text x="1192" y="416" class="text-primary font-xl">384 GB</text>

  <rect x="1176" y="448" width="248" height="64" rx="8" class="bg-tertiary"/>
  <text x="1192" y="472" class="text-muted font-xs">MONTHLY COST</text>
  <text x="1192" y="496" class="text-primary font-xl">$4,200</text>
  <text x="1270" y="496" class="text-secondary font-xs">/month</text>

  <text x="1184" y="760" class="text-muted font-xs">QUICK ACTIONS</text>
  <rect x="1176" y="776" width="248" height="36" rx="8" class="accent-blue"/>
  <text x="1300" y="800" class="bg-primary font-sm" text-anchor="middle">Save Scenario</text>
</svg>
